<svg width="234" height="217">
  <defs id="SvgjsDefs1150"></defs>
  <g id="main_text" rel="mainfill" name="main_text" feature="main_text" xmlns:name="mainText_mainfill"
     groupname="main_text" fill="#363636"
     transform="translate(-4.361868539971742, 74.27986376081888) scale(5.071942187540584)">
    <path
      d="M3.83 23.49 q-1.37 -0.77 -2.17 -2.09 t-0.8 -2.88 q0 -1.54 0.8 -2.86 t2.17 -2.09 t2.99 -0.77 t3 0.77 t2.19 2.09 t0.81 2.86 q0 1.56 -0.81 2.88 t-2.19 2.09 t-3 0.77 t-2.99 -0.77 z M5.3 15.83 q-0.7 0.41 -1.1 1.12 t-0.4 1.57 q0 0.9 0.39 1.61 t1.08 1.12 t1.55 0.41 q0.84 0 1.53 -0.41 t1.09 -1.13 t0.4 -1.6 q0 -0.86 -0.4 -1.57 t-1.09 -1.12 t-1.53 -0.41 q-0.82 0 -1.52 0.41 z M18.060000000000002 11.37 q-0.48 0.47 -1.16 0.47 q-0.7 0 -1.19 -0.47 t-0.49 -1.15 q0 -0.66 0.49 -1.13 t1.19 -0.47 q0.68 0 1.16 0.47 t0.48 1.13 q0 0.68 -0.48 1.15 z M15.4 13.02 l3 0 l0 10.98 l-3 0 l0 -10.98 z M21.38 8.88 l3 0 l0 15.12 l-3 0 l0 -15.12 z M29.15 23.69 q-0.49 0.47 -1.17 0.47 t-1.16 -0.47 t-0.48 -1.13 q0 -0.64 0.48 -1.12 t1.16 -0.48 t1.17 0.48 t0.49 1.12 q0 0.66 -0.49 1.13 z M34.57 11.37 q-0.49 0.47 -1.17 0.47 t-1.18 -0.48 t-0.5 -1.14 t0.5 -1.13 t1.18 -0.47 t1.17 0.47 t0.49 1.13 q0 0.68 -0.49 1.15 z M34.92 23.9 q0 2.28 -1.1 3.23 t-3.26 0.95 q-0.52 0 -1.32 -0.2 l0.16 -2.54 q0.56 0.2 1.12 0.2 q0.64 0 0.95 -0.24 t0.38 -0.57 t0.07 -0.83 l0 -10.88 l3 0 l0 10.88 z M37.28 22.54 l1.56 -2.08 q0.72 0.5 1.68 0.84 t1.88 0.34 q0.68 0 1.13 -0.28 t0.45 -0.7 t-0.51 -0.59 t-0.99 -0.24 t-0.62 -0.09 q-1.2 -0.2 -2.07 -0.48 t-1.58 -1 t-0.71 -1.98 q0 -2.08 1.51 -2.78 t3.03 -0.7 q1.3 0 2.4 0.38 t2.18 1.2 l-1.56 2.04 q-0.78 -0.46 -1.54 -0.74 t-1.58 -0.28 q-0.5 0 -0.97 0.22 t-0.47 0.6 q0 0.48 0.65 0.68 t1.43 0.3 q1.4 0.24 2.24 0.5 t1.49 0.97 t0.65 2.01 q0 1.72 -1.18 2.65 t-3.34 0.93 q-3 0 -5.16 -1.72 z"></path>
  </g>
  <g id="SvgjsG1152" rel="mainfill" name="symbol" feature="symbol" xmlns:name="symbol_mainfill" fill="#363636"
     transform="translate(71.36263819830407, 9.679979216522707) scale(0.9092866447867195)">
    <path
      d="M85.968,86.253V72.438H74.231v13.815h-8.42L47.647,40.025l31.662,16.894v15.466h2V57.985l6.034,3.22l4.286-8.032  L30.034,20.308l3.613-6.731L26.04,4.751l-0.758,0.667c-0.331,0.291-8.117,7.212-10.615,15.63  c-3.339,11.256,0.963,19.163,1.889,20.679v39.658h-2.771v2h2.771v2.868H5.1v2h90v-2H85.968z M76.231,74.438h7.736v11.815h-7.736  V74.438z M43.37,67.757h11.467L43.37,77.899V67.757z M56.772,68.715l4.087,10.403H45.01L56.772,68.715z M44.348,65.757l7.341-9.979  l3.921,9.979H44.348z M43.37,63.709v-8.73h6.422L43.37,63.709z M43.37,81.118h18.275l2.018,5.135H43.37V81.118z M50.589,52.979  H43.37V37.742l1.559,0.832L50.589,52.979z M88.924,53.995L86.521,58.5L26.674,26.568l2.415-4.499L88.924,53.995z M25.866,7.612  l5.369,6.23l-1.751,3.262l-8.149-4.352C23.124,10.382,24.902,8.549,25.866,7.612z M20.164,14.393l8.375,4.473l-0.268,0.5  l-0.053-0.029l-4.286,8.032l0.033,0.018l-0.271,0.505l-7.656-4.088c0.152-0.716,0.326-1.442,0.548-2.189  C17.355,19.021,18.703,16.549,20.164,14.393z M15.673,25.877l7.074,3.777l-5.193,9.674C16.473,37.005,14.824,32.207,15.673,25.877z   M18.556,83.385h2.893v-2h-2.893V41.691l7.173-13.362l15.642,8.346v49.578H18.556V83.385z"></path>
    <rect x="12.259" y="91.367" width="45.521" height="2"></rect>
    <rect x="61.859" y="91.367" width="26.34" height="2"></rect>
  </g>
</svg>
